/vscmnt/brussel_pixiu_data/_data_brussel/112/vsc11236/PredSimResults/SUBJ09mtu3D/worker3.mot
version=1
nRows=11
nColumns=50
inDegrees=yes
endheader
                time	         pelvis_tilt	         pelvis_list	     pelvis_rotation	           pelvis_tx	           pelvis_ty	           pelvis_tz	       hip_flexion_r	     hip_adduction_r	      hip_rotation_r	        knee_angle_r	       ankle_angle_r	         mtp_angle_r	       hip_flexion_l	     hip_adduction_l	      hip_rotation_l	        knee_angle_l	       ankle_angle_l	         mtp_angle_l	    lumbar_extension	      lumbar_bending	     lumbar_rotation	 ercspn_r/activation	 intobl_r/activation	 extobl_r/activation	    abd_r/activation	    add_r/activation	hamstrings_r/activation	bifemsh_r/activation	glut_max_r/activation	iliopsoas_r/activation	rect_fem_r/activation	  vasti_r/activation	gastroc_r/activation	 soleus_r/activation	tib_ant_r/activation	 ercspn_l/activation	 intobl_l/activation	 extobl_l/activation	    abd_l/activation	    add_l/activation	hamstrings_l/activation	bifemsh_l/activation	glut_max_l/activation	iliopsoas_l/activation	rect_fem_l/activation	  vasti_l/activation	gastroc_l/activation	 soleus_l/activation	tib_ant_l/activation	
          1.78894057	         -4.29085596	          2.86661081	         -7.74042496	          2.21828631	          0.99197568	          0.00935703	        -12.66715541	         -2.90883954	          5.20194463	        -10.46654041	          7.78911158	         31.70371582	         24.37195005	          1.08976680	         -0.44493595	          1.45315126	          4.80030142	          0.25991373	         -8.76100440	         -2.04283871	          3.87864870	          0.05662246	          0.01000000	          0.01000000	          0.04758161	          0.01520545	          0.01662052	          0.09626697	          0.02967682	          0.33060199	          0.01437051	          0.01147981	          0.31388750	          0.23404798	          0.01437050	          0.06868666	          0.12478318	          0.01242671	          0.03075600	          0.09624463	          0.05035297	          0.22457233	          0.05766024	          0.08287686	          0.01000002	          0.01436802	          0.01576403	          0.00999999	          0.28062089	
          1.80086684	         -4.33311376	          2.86282012	         -7.62982702	          2.23667974	          0.99017551	          0.00865532	        -12.93052254	         -2.94634503	          4.66861262	        -11.83271725	          6.87174667	         33.58785610	         23.99699286	          1.35009907	         -0.14081627	          0.45788373	          4.03495507	          0.21231132	         -8.37042722	         -2.28275996	          4.13187110	          0.06349420	          0.00999999	          0.01000000	          0.03969198	          0.01536270	          0.01739971	          0.08030472	          0.02475603	          0.31410991	          0.01198771	          0.01000035	          0.28797822	          0.21406259	          0.01198770	          0.05729756	          0.10409258	          0.01036621	          0.07814410	          0.08028607	          0.05212993	          0.18733545	          0.06449722	          0.06913484	          0.01000000	          0.01198566	          0.01437053	          0.01198772	          0.32645728	
          1.81279311	         -4.35981686	          2.87435660	         -7.47318449	          2.25515398	          0.98877924	          0.00789128	        -12.96100939	         -2.98112430	          4.10637531	        -13.62811014	          5.78419433	         35.47470558	         23.46510449	          1.61774023	          0.11770650	         -0.30626492	          3.23056429	          0.20226697	         -7.99003236	         -2.54706123	          4.35194403	          0.07347802	          0.00999999	          0.01000000	          0.03311056	          0.01281541	          0.02429681	          0.06698920	          0.02065118	          0.30413547	          0.01000002	          0.01000001	          0.24779564	          0.18156541	          0.00999999	          0.04779692	          0.08683274	          0.01000000	          0.11684363	          0.06697365	          0.05515143	          0.15627292	          0.08188095	          0.05767143	          0.01000000	          0.01000005	          0.01198771	          0.01000001	          0.39350656	
          1.82471938	         -4.37403443	          2.89698632	         -7.27414605	          2.27342023	          0.98800373	          0.00706291	        -12.66802219	         -3.00836517	          3.51894420	        -15.96587855	          4.51434844	         37.21301988	         22.83366031	          1.90340745	          0.34250982	         -0.87177870	          2.34865685	          0.16668938	         -7.65138422	         -2.83093753	          4.53716687	          0.09146639	          0.00999999	          0.01000000	          0.02762042	          0.02720088	          0.02065116	          0.05588157	          0.01722695	          0.28136902	          0.01000000	          0.01000011	          0.20670804	          0.15145961	          0.00999999	          0.04664934	          0.07243479	          0.00999999	          0.15321679	          0.07563661	          0.05318230	          0.13036093	          0.09781739	          0.04810879	          0.01000000	          0.01000020	          0.01000001	          0.00999999	          0.43323697	
          1.83664565	         -4.37661097	          2.92239407	         -7.03547996	          2.29128259	          0.98795561	          0.00618887	        -11.99720234	         -3.02432722	          2.91000486	        -18.91407514	          3.12108171	         38.46751365	         22.16011285	          2.19479119	          0.53345029	         -1.39915546	          1.74738322	          0.13226807	         -7.37501927	         -3.12634466	          4.68558150	          0.11250818	          0.00999999	          0.01000000	          0.02304061	          0.04095721	          0.01722695	          0.04661579	          0.01437051	          0.24266786	          0.01000000	          0.01000002	          0.17243328	          0.12634572	          0.00999999	          0.05256009	          0.06042420	          0.00999999	          0.18286735	          0.07537493	          0.05162612	          0.10874547	          0.10919038	          0.04013175	          0.01000000	          0.01000052	          0.01000000	          0.01000000	          0.44159613	
          1.84857193	         -4.36835542	          2.93621430	         -6.75784167	          2.30862875	          0.98869935	          0.00529802	        -10.93383563	         -3.02441392	          2.27537291	        -22.48170079	          1.69726779	         38.78615332	         21.45313174	          2.47180982	          0.68814856	         -1.89246961	          1.43367677	          0.10301970	         -7.17091022	         -3.41837460	          4.79451088	          0.13651513	          0.00999999	          0.01000001	          0.01922019	          0.05365037	          0.01437051	          0.05945311	          0.01198770	          0.20243051	          0.00999999	          0.01000001	          0.14384169	          0.10539603	          0.00999999	          0.05118583	          0.05040512	          0.00999999	          0.19531046	          0.07112508	          0.04695840	          0.09071412	          0.12039035	          0.03347741	          0.01000000	          0.01901896	          0.01000002	          0.01000009	          0.42385127	
          1.86049820	         -4.35034614	          2.92219717	         -6.44015426	          2.32541026	          0.99024788	          0.00441664	         -9.49824780	         -3.00349881	          1.62431017	        -26.57579938	          0.09695526	         38.15954121	         20.70689833	          2.71447066	          0.81535243	         -2.33037788	          1.38571277	          0.08389363	         -7.04165040	         -3.68854019	          4.86149977	          0.13727610	          0.00999999	          0.01000000	          0.01603324	          0.06443026	          0.01198770	          0.06910177	          0.00999999	          0.16886501	          0.00999999	          0.01000000	          0.11999095	          0.08792006	          0.00999999	          0.04304859	          0.04204732	          0.00999999	          0.18621014	          0.05933169	          0.04714868	          0.07567260	          0.11792387	          0.02792644	          0.01000000	          0.01681085	          0.01000001	          0.01149285	          0.39467169	
          1.87242447	         -4.32330913	          2.86146949	         -6.08432058	          2.34164551	          0.99247567	          0.00356732	         -7.74984180	         -2.95285683	          0.97160835	        -31.01952476	         -1.84089516	         36.69273866	         19.92350148	          2.90050217	          0.93241387	         -2.70341668	          1.51374734	          0.07783299	         -6.98358410	         -3.91455518	          4.88860981	          0.13068877	          0.00999999	          0.01000000	          0.01337473	          0.07263391	          0.01000000	          0.08877923	          0.00999999	          0.14086510	          0.00999999	          0.00999999	          0.10009496	          0.07334182	          0.00999999	          0.03591060	          0.03507535	          0.00999999	          0.17337334	          0.04949376	          0.04627177	          0.06312515	          0.10812487	          0.02329589	          0.01000000	          0.01919882	          0.01000000	          0.01208527	          0.36074365	
          1.88435074	         -4.28709286	          2.74038499	         -5.69166123	          2.35740563	          0.99517101	          0.00276626	         -5.77499706	         -2.86441098	          0.32887800	        -35.60997296	         -4.14234523	         34.40130284	         19.10612529	          3.01419239	          1.06364671	         -3.00967689	          1.72503098	          0.08099452	         -6.98735158	         -4.07970703	          4.87746478	          0.12538549	          0.01000001	          0.01000008	          0.01115703	          0.06806636	          0.01000003	          0.07405878	          0.00999999	          0.11750791	          0.00999999	          0.00999999	          0.08349797	          0.06118083	          0.02636177	          0.02995618	          0.02925942	          0.01000000	          0.16776951	          0.04128708	          0.04388143	          0.05265823	          0.09019643	          0.01943314	          0.01000000	          0.01605447	          0.01000005	          0.01012679	          0.33127581	
          1.89627701	         -4.24117483	          2.56813233	         -5.27131882	          2.37277725	          0.99809539	          0.00202772	         -3.67708013	         -2.74646173	         -0.28238504	        -40.18334591	         -6.40710217	         30.97829118	         18.26137328	          3.06253797	          1.23276865	         -3.25990705	          1.97190805	          0.09162109	         -7.03899282	         -4.19207182	          4.83571287	          0.14501672	          0.02910302	          0.05128327	          0.00999999	          0.05678011	          0.00999999	          0.06932806	          0.00999999	          0.09802364	          0.01000000	          0.00999999	          0.06965297	          0.05103629	          0.14017636	          0.02498907	          0.02440785	          0.00999999	          0.15745010	          0.03444117	          0.03660547	          0.04392687	          0.07524074	          0.01621088	          0.01000000	          0.01644055	          0.01000000	          0.01000000	          0.30859160	
          1.90820328	         -4.18494956	          2.35786455	         -4.82616841	          2.38782106	          1.00102028	          0.00133809	         -1.57740381	         -2.58269635	         -0.82671719	        -44.62583292	         -7.64123518	         26.67329472	         17.40432510	          3.05962670	          1.44895290	         -3.47162206	          2.18405678	          0.10615384	         -7.12945085	         -4.25855013	          4.76716752	          0.15058955	          0.03113324	          0.06764611	          0.00999999	          0.04736526	          0.00999999	          0.09870536	          0.00999999	          0.08882281	          0.01000000	          0.00999999	          0.05810364	          0.04257384	          0.16136749	          0.02084557	          0.02036072	          0.00999999	          0.14870316	          0.02873039	          0.03154220	          0.03664334	          0.06515815	          0.01352292	          0.01000000	          0.01438161	          0.01000000	          0.00999999	          0.29069953	
